<svg id="Capa_1" enable-background="new 0 0 512 512" height="512" viewBox="0 0 512 512" width="512" xmlns="http://www.w3.org/2000/svg"><g><g><g><g><g><g><g><g><g><g><g><g><g><g><g><g><g><g><g><g><g><circle cx="256" cy="256" fill="#b674f2" r="256"/></g></g></g></g></g></g></g></g></g></g></g></g></g></g></g></g></g></g></g></g><path d="m512 256c0-3.267-.061-6.52-.183-9.757l-90.986-90.986-34.838 29.672-112.434-112.433-49.367 121.107-91.606 40.403 80.996 80.686-119.796 45.309 152.456 151.816c3.238.121 6.491.183 9.758.183 141.385 0 256-114.615 256-256z" fill="#8f4cd6"/><g><path d="m266.572 256c23.539-2.711 41.229-16.376 41.229-63.1 0-53.499-23.192-130.08-51.801-130.08-24.142 0-44.427 54.536-50.172 103.714-44.958-20.744-102.068-31.876-114.658-11.277-13.131 21.484 26.54 70.322 67.36 100.744-40.82 30.422-80.491 79.26-67.36 100.744 12.59 20.6 69.701 9.468 114.658-11.276 5.746 49.178 26.03 103.711 50.172 103.712 28.609 0 51.801-76.581 51.801-130.08 0-46.725-17.69-60.389-41.229-63.101z" fill="#fff"/><path d="m353.471 256.001c40.82-30.422 80.491-79.26 67.36-100.744-12.59-20.6-69.701-9.467-114.659 11.277-5.745-49.178-26.03-103.714-50.172-103.714-.061 0-.121.007-.182.008v138.125c-15.859 19.254-11.229 37.331-.469 55.049-10.759 17.717-15.389 35.793.469 55.047v138.124c.061 0 .121.008.182.008 24.142 0 44.427-54.534 50.172-103.712 44.958 20.745 102.069 31.876 114.659 11.277 13.131-21.485-26.539-70.323-67.36-100.745z" fill="#e9edf5"/></g><g><path d="m241 153.376h30v205.248h-30z" fill="#a7e340"/></g><g><path d="m153.376 241.001h205.249v30h-205.249z" fill="#a7e340" transform="matrix(.855 -.519 .519 .855 -95.702 170.105)"/></g><g><path d="m241.001 153.377h30v205.249h-30z" fill="#a7e340" transform="matrix(.527 -.85 .85 .527 -96.52 338.475)"/></g><path d="m351.499 215.543-15.574-25.641-64.925 39.438v-75.964h-15.182v84.856.33 34.98.121 84.961h15.182v-75.656l64.279 39.905 15.823-25.488-66.437-41.245z" fill="#86c42b"/><g><circle cx="256" cy="256" fill="#93d632" r="44.578"/></g><g><path d="m256 211.422c-.061 0-.121.004-.182.004v89.147c.061 0 .121.004.182.004 24.62 0 44.578-19.958 44.578-44.578 0-24.619-19.958-44.577-44.578-44.577z" fill="#78b22a"/></g></g></svg>